<svg width="200" height="166" viewBox="0 0 200 166" fill="none" xmlns="http://www.w3.org/2000/svg">
<g clip-path="url(#clip0_20_7)">
<path d="M5.45784 61.904C7.3658 59.4682 8.78038 56.7364 10.9244 54.6527C14.0475 51.682 17.4995 48.9085 21.4236 46.8393C45.504 33.9032 71.8535 29.4879 99.0863 37.3954C126.813 45.5988 146.535 64.1652 155.788 91.6153C160.497 105.39 161.881 119.487 160.971 133.683C160.75 136.288 160.622 138.738 160.48 143.076C165.312 139.866 169 137.445 172.781 134.869C173.181 135.319 173.675 135.615 174.24 136.165C173.754 137.347 173.597 138.727 172.783 139.713C169.038 144.838 165.129 149.865 161.221 154.892C158.591 158.158 156.033 161.678 150.992 160.762C145.695 159.901 143.47 155.408 142.253 151.098C140.7 145.113 139.754 138.86 138.973 132.705C138.872 131.381 140.552 130.072 141.388 128.678C142.868 129.566 144.956 130.186 145.571 131.397C147.324 135.186 148.304 139.144 149.614 143.298C150.057 142.932 150.572 142.82 150.5 142.566C158.107 100.798 143.962 64.7279 104.329 45.8043C102.427 44.8743 100.433 44.0992 98.2519 43.6339C68.5386 36.1342 41.1308 39.7043 16.222 55.5131C12.9771 57.5684 10.2758 60.5815 7.33844 63.2424C6.68061 62.8479 6.11567 62.2985 5.45784 61.904Z" fill="white"/>
</g>
<defs>
<clipPath id="clip0_20_7">
<rect width="183.555" height="82.7941" fill="white" transform="translate(42.5808) rotate(30.9505)"/>
</clipPath>
</defs>
</svg>
