<svg width="140" height="140" viewBox="0 0 140 140" fill="none" xmlns="http://www.w3.org/2000/svg">
<path d="M29.1667 87.5002C23.6833 87.5002 18.6083 89.4252 14.5833 92.6335C11.8452 94.8095 9.63549 97.5774 8.12006 100.73C6.60462 103.882 5.82282 107.336 5.83333 110.833C5.83333 115.208 7.05833 119.35 9.21667 122.85C11.2731 126.306 14.1942 129.167 17.6923 131.152C21.1904 133.136 25.145 134.175 29.1667 134.167C35.0583 134.167 40.425 132.008 44.5083 128.333C46.3167 126.817 47.8917 124.95 49.1167 122.85C51.275 119.35 52.5 115.208 52.5 110.833C52.5 97.9418 42.0583 87.5002 29.1667 87.5002ZM41.2417 108.325L28.8167 119.817C28 120.575 26.8917 120.983 25.8417 120.983C24.7333 120.983 23.625 120.575 22.75 119.7L16.975 113.925C16.1614 113.102 15.7051 111.991 15.7051 110.833C15.7051 109.676 16.1614 108.565 16.975 107.742C18.6667 106.05 21.4667 106.05 23.1583 107.742L25.9583 110.542L35.2917 101.908C37.0417 100.275 39.8417 100.392 41.475 102.142C43.1083 103.892 42.9917 106.692 41.2417 108.325ZM86.625 23.0418V45.2085H77.875V23.0418C77.875 21.4668 76.475 20.7085 75.5417 20.7085C75.25 20.7085 74.9583 20.7668 74.6667 20.8835L28.4083 38.3252C25.3167 39.4918 23.3333 42.4085 23.3333 45.7335V49.6418C18.025 53.6085 14.5833 59.9668 14.5833 67.1418V45.7335C14.5833 38.7918 18.8417 32.6085 25.3167 30.1585L71.6333 12.6585C72.9167 12.1918 74.2583 11.9585 75.5417 11.9585C81.375 11.9585 86.625 16.6835 86.625 23.0418ZM125.417 84.5835V90.4168C125.417 91.1804 125.118 91.9135 124.583 92.4589C124.049 93.0042 123.322 93.3182 122.558 93.3335H114.042C110.95 93.3335 108.15 91.0585 107.917 88.0252C107.742 86.2168 108.442 84.5252 109.608 83.3585C110.136 82.8115 110.772 82.379 111.474 82.0879C112.177 81.7969 112.931 81.6536 113.692 81.6668H122.5C124.192 81.7252 125.417 83.0085 125.417 84.5835Z" fill="#5200FF"/>
<path d="M113.633 75.5418H119.583C122.792 75.5418 125.417 72.9168 125.417 69.7085V67.1418C125.417 55.0668 115.558 45.2085 103.483 45.2085H36.5167C31.5583 45.2085 27.0083 46.8418 23.3333 49.6418C18.025 53.6085 14.5833 59.9668 14.5833 67.1418V77.5252C14.5833 79.7418 16.9167 81.1418 19.0167 80.4418C22.2833 79.3335 25.725 78.7502 29.1667 78.7502C46.8417 78.7502 61.25 93.1585 61.25 110.833C61.25 115.034 60.1417 119.642 58.3917 123.725C57.4583 125.825 58.9167 128.333 61.1917 128.333H103.483C115.558 128.333 125.417 118.475 125.417 106.4V105.292C125.417 102.083 122.792 99.4585 119.583 99.4585H114.508C108.908 99.4585 103.542 96.0168 102.083 90.5918C100.917 86.1585 102.317 81.8418 105.233 79.0418C107.392 76.8252 110.367 75.5418 113.633 75.5418ZM81.6667 74.3752H52.5C50.1083 74.3752 48.125 72.3918 48.125 70.0002C48.125 67.6085 50.1083 65.6252 52.5 65.6252H81.6667C84.0583 65.6252 86.0417 67.6085 86.0417 70.0002C86.0417 72.3918 84.0583 74.3752 81.6667 74.3752Z" fill="#5200FF"/>
</svg>
