<svg width="140" height="140" viewBox="0 0 140 140" fill="none" xmlns="http://www.w3.org/2000/svg">
<path d="M127.867 97.7025C125.942 113.219 113.225 125.936 97.7083 127.861C88.3167 129.028 79.5667 126.461 72.7417 121.444C68.8333 118.586 69.7667 112.519 74.4333 111.119C83.0999 108.471 90.9834 103.735 97.3913 97.3272C103.799 90.9193 108.535 83.0358 111.183 74.3692C112.583 69.7609 118.65 68.8275 121.508 72.6775C126.729 79.9091 129.002 88.8561 127.867 97.7025Z" fill="#5200FF"/>
<path d="M58.275 11.6667C32.55 11.6667 11.6667 32.5501 11.6667 58.2751C11.6667 84.0001 32.55 104.883 58.275 104.883C84 104.883 104.883 84.0001 104.883 58.2751C104.825 32.5501 84 11.6667 58.275 11.6667ZM52.7917 51.7417L66.85 56.6418C71.925 58.4501 74.375 62.0084 74.375 67.4917C74.375 73.7917 69.3583 78.9834 63.2333 78.9834H62.7083V79.2751C62.7083 81.6667 60.725 83.6501 58.3333 83.6501C55.9417 83.6501 53.9583 81.6667 53.9583 79.2751V78.9251C47.4833 78.6334 42.2917 73.2084 42.2917 66.4418C42.2917 64.0501 44.275 62.0667 46.6667 62.0667C49.0583 62.0667 51.0417 64.0501 51.0417 66.4418C51.0417 68.5418 52.5583 70.2334 54.425 70.2334H63.175C64.5167 70.2334 65.5667 69.0084 65.5667 67.4917C65.5667 65.4501 65.2167 65.3334 63.875 64.8667L49.8167 59.9667C44.8 58.2167 42.2917 54.6584 42.2917 49.1167C42.2917 42.8167 47.3083 37.6251 53.4333 37.6251H53.9583V37.3917C53.9583 35.0001 55.9417 33.0167 58.3333 33.0167C60.725 33.0167 62.7083 35.0001 62.7083 37.3917V37.7417C69.1833 38.0334 74.375 43.4584 74.375 50.2251C74.375 52.6167 72.3917 54.6001 70 54.6001C67.6083 54.6001 65.625 52.6167 65.625 50.2251C65.625 48.1251 64.1083 46.4334 62.2417 46.4334H53.4917C52.15 46.4334 51.1 47.6584 51.1 49.1751C51.0417 51.1584 51.3917 51.2751 52.7917 51.7417Z" fill="#5200FF"/>
</svg>
