<svg width="191" height="119" viewBox="0 0 191 119" fill="none" xmlns="http://www.w3.org/2000/svg">
<g clip-path="url(#clip0_20_19)">
<path d="M20.7225 -0.00012441C20.4599 23.3558 50.2186 65.8497 76.9761 81.5342C105.852 98.5759 125.377 100.807 170.357 91.8174C168.648 94.8633 167.063 97.2174 165.902 99.5477C164.498 102.155 163.033 104.924 162.113 107.715C161.807 108.522 162.347 110.389 163.012 110.826C163.678 111.263 165.318 110.592 165.867 109.877C170.986 102.952 175.863 95.9363 180.922 88.8046C182.508 86.4505 182.515 84.2372 180.762 82.6489C173.866 77.0796 167.031 71.3488 159.952 65.8951C158.319 64.7216 155.893 64.5408 153.47 63.6221C152.776 71.3007 157.444 72.1469 159.921 75.1174C162.457 78.2954 165.543 80.7578 169.049 84.3032C155.564 89.5337 143.244 91.3272 131.114 90.7918C86.5951 89.0593 54.4095 64.2988 31.9894 22.186C29.0968 16.6568 26.8125 10.6196 24.1023 4.97494C23.0756 3.66227 22.1701 2.39554 20.7225 -0.00012441Z" fill="white"/>
</g>
<defs>
<clipPath id="clip0_20_19">
<rect width="181.498" height="58.4584" fill="white" transform="matrix(0.935062 0.354484 0.354484 -0.935062 0 54.6621)"/>
</clipPath>
</defs>
</svg>
