<svg width="216" height="218" viewBox="0 0 216 218" fill="none" xmlns="http://www.w3.org/2000/svg">
<g clip-path="url(#clip0_20_15)">
<path d="M152.729 9.05455C155.121 11.982 157.962 14.4476 159.896 17.5288C162.638 21.9966 165.08 26.7722 166.607 31.8554C176.249 63.1251 175.563 94.2358 160.469 122.413C144.924 151.053 119.181 167.366 85.4847 169.044C68.5618 169.96 51.9953 167.026 35.819 161.473C32.8619 160.394 30.0631 159.468 25.0904 157.926C27.7334 164.396 29.7179 169.325 31.8606 174.409C31.2528 174.716 30.8033 175.178 30.0456 175.64C28.7876 174.715 27.2299 174.098 26.2715 172.866C21.1802 167.011 16.2387 161.002 11.2972 154.993C8.10558 150.987 4.60582 146.981 6.76871 141.591C8.92314 135.894 14.5943 134.818 19.8328 134.821C27.0786 134.978 34.4996 135.906 41.7708 136.988C43.32 137.296 44.4621 139.607 45.8869 140.994C44.5383 142.38 43.365 144.535 41.8327 144.842C37.0776 145.61 32.297 145.454 27.2167 145.606C27.5418 146.222 27.5588 146.838 27.8669 146.838C74.3828 168.73 119.096 164.286 149.618 125.642C151.108 123.795 152.44 121.793 153.455 119.484C168.623 88.3799 170.516 56.3457 157.741 23.2263C156.082 18.9131 153.198 14.9073 150.773 10.7478C151.372 10.132 152.13 9.67032 152.729 9.05455Z" fill="white"/>
</g>
<defs>
<clipPath id="clip0_20_15">
<rect width="205.632" height="101.276" fill="white" transform="translate(216.001 70.6396) rotate(134.226)"/>
</clipPath>
</defs>
</svg>
