<svg width="221" height="190" viewBox="0 0 221 190" fill="none" xmlns="http://www.w3.org/2000/svg">
<g clip-path="url(#clip0_20_17)">
<path d="M220.676 49.4326C198.329 37.1041 136.186 45.6182 102.041 64.9039C65.081 85.6569 49.0554 104.487 25.7668 155.162C24.0424 151.841 22.8977 149.003 21.4741 146.612C19.9563 143.828 18.3262 140.899 16.2867 138.517C15.7252 137.787 13.5409 137.375 12.6461 137.83C11.7514 138.286 11.2334 140.311 11.534 141.242C14.5769 150.056 17.8807 158.671 21.1663 167.531C22.311 170.369 24.441 171.519 27.2194 170.545C37.4927 166.363 47.8783 162.327 58.1696 157.899C60.4627 156.833 62.3608 154.444 64.969 152.438C58.0537 147.763 53.9205 152.104 49.2946 153.104C44.426 154.06 39.8581 155.946 33.9463 157.703C38.4815 141.202 45.5054 127.667 54.6412 115.529C87.9459 70.8627 134.705 50.7081 191.266 49.5076C198.655 49.4022 206.103 50.1818 213.475 50.3227C215.471 49.9498 217.336 49.6771 220.676 49.4326Z" fill="white"/>
</g>
<defs>
<clipPath id="clip0_20_17">
<rect width="230.427" height="62.3585" fill="white" transform="matrix(-0.792717 0.60959 0.60959 0.792717 182.663 0)"/>
</clipPath>
</defs>
</svg>
