<svg width="229" height="175" viewBox="0 0 229 175" fill="none" xmlns="http://www.w3.org/2000/svg">
<g clip-path="url(#clip0_20_9)">
<path d="M5.15759e-05 52.8704C21.0369 38.4326 83.6262 40.856 119.412 56.7182C158.137 73.766 175.867 90.9381 203.86 139.081C205.257 135.609 206.123 132.674 207.31 130.157C208.553 127.241 209.894 124.168 211.693 121.6C212.182 120.819 214.314 120.197 215.247 120.563C216.18 120.93 216.888 122.894 216.678 123.849C214.496 132.913 212.035 141.803 209.615 150.936C208.748 153.871 206.741 155.223 203.886 154.523C193.274 151.363 182.564 148.359 171.91 144.955C169.529 144.118 167.414 141.926 164.629 140.185C171.057 134.862 175.58 138.777 180.275 139.323C185.206 139.799 189.927 141.231 195.972 142.404C189.886 126.431 181.611 113.651 171.369 102.465C133.993 61.2743 85.5854 45.775 29.2441 50.0836C21.8879 50.6977 14.5586 52.1978 7.24399 53.0552C5.22417 52.8784 3.34356 52.7886 5.15759e-05 52.8704Z" fill="white"/>
</g>
<defs>
<clipPath id="clip0_20_9">
<rect width="230" height="62.3585" fill="white" transform="translate(33.0649) rotate(32.0216)"/>
</clipPath>
</defs>
</svg>
