<svg width="140" height="140" viewBox="0 0 140 140" fill="none" xmlns="http://www.w3.org/2000/svg">
<path d="M70 132.697C46.6667 132.697 27.7083 115.955 27.7083 95.3634V73.78C27.7083 71.3884 29.6917 69.405 32.0833 69.405C34.475 69.405 36.4583 71.3884 36.4583 73.78C36.4583 89.0634 50.8667 100.613 70 100.613C89.1333 100.613 103.542 89.0634 103.542 73.78C103.542 71.3884 105.525 69.405 107.917 69.405C110.308 69.405 112.292 71.3884 112.292 73.78V95.3634C112.292 115.955 93.3333 132.697 70 132.697ZM36.4583 96.005C36.8667 111.463 51.7417 123.947 70 123.947C88.2583 123.947 103.133 111.463 103.542 96.005C95.9583 104.23 83.9417 109.363 70 109.363C56.0583 109.363 44.1 104.23 36.4583 96.005Z" fill="#5200FF"/>
<path d="M70 80.2084C53.9 80.2084 39.4333 72.9751 32.375 61.3084C29.3417 56.3501 27.7083 50.5751 27.7083 44.6251C27.7083 34.5917 32.2 25.1417 40.3083 18.0251C48.2417 11.0834 58.8 7.29175 70 7.29175C81.2 7.29175 91.7 11.0834 99.6917 17.9667C107.8 25.1417 112.292 34.5917 112.292 44.6251C112.292 50.5751 110.658 56.2917 107.625 61.3084C100.567 72.9751 86.1 80.2084 70 80.2084ZM70 16.0417C60.9 16.0417 52.3833 19.0751 46.025 24.6751C39.8417 30.0417 36.4583 37.1584 36.4583 44.6251C36.4583 49.0001 37.625 53.0834 39.8417 56.7584C45.3833 65.8584 56.9333 71.4584 70 71.4584C83.0667 71.4584 94.6167 65.8001 100.158 56.7584C102.433 53.0834 103.542 49.0001 103.542 44.6251C103.542 37.1584 100.158 30.0417 93.9167 24.5584C87.5583 19.0751 79.1 16.0417 70 16.0417Z" fill="#5200FF"/>
<path d="M70 109.375C45.9083 109.375 27.7083 94.0918 27.7083 73.7917V44.6251C27.7083 24.0334 46.6667 7.29175 70 7.29175C81.2 7.29175 91.7 11.0834 99.6917 17.9667C107.8 25.1417 112.292 34.5917 112.292 44.6251V73.7917C112.292 94.0918 94.0917 109.375 70 109.375ZM70 16.0417C51.5083 16.0417 36.4583 28.8751 36.4583 44.6251V73.7917C36.4583 89.0751 50.8667 100.625 70 100.625C89.1333 100.625 103.542 89.0751 103.542 73.7917V44.6251C103.542 37.1584 100.158 30.0417 93.9167 24.5584C87.5583 19.0751 79.1 16.0417 70 16.0417Z" fill="#5200FF"/>
</svg>
