<svg width="140" height="140" viewBox="0 0 140 140" fill="none" xmlns="http://www.w3.org/2000/svg">
<path d="M134.167 88.7776C131.775 88.7776 129.792 90.7609 129.792 93.1526C129.786 101.383 127 109.369 121.886 115.818C116.772 122.266 109.629 126.798 101.617 128.678L103.192 126.053C103.787 125.055 103.962 123.861 103.678 122.734C103.393 121.608 102.673 120.64 101.675 120.044C100.677 119.449 99.4835 119.274 98.3567 119.558C97.2299 119.843 96.2623 120.563 95.6667 121.561L89.5417 131.769C88.725 133.111 88.725 134.803 89.4833 136.144C90.2417 137.544 91.7 138.361 93.275 138.361C118.183 138.361 138.483 118.061 138.483 93.1526C138.491 92.5808 138.385 92.0132 138.172 91.4827C137.958 90.9523 137.641 90.4695 137.24 90.0625C136.838 89.6554 136.36 89.3322 135.832 89.1117C135.305 88.8911 134.738 88.7775 134.167 88.7776ZM46.6667 1.27759C21.7583 1.27759 1.45834 21.5776 1.45834 46.4859C1.45834 48.8776 3.44167 50.8609 5.83334 50.8609C8.225 50.8609 10.2083 48.8776 10.2083 46.4859C10.2083 29.2193 22.225 14.7526 38.3833 10.9609L36.8083 13.5859C36.5134 14.08 36.3187 14.6274 36.2353 15.1967C36.1519 15.7661 36.1815 16.3463 36.3223 16.9042C36.4631 17.4621 36.7125 17.9868 37.0561 18.4484C37.3997 18.91 37.8309 19.2993 38.325 19.5943C38.8191 19.8892 39.3665 20.0839 39.9358 20.1673C40.5052 20.2507 41.0854 20.2211 41.6433 20.0803C42.2012 19.9395 42.7259 19.6901 43.1875 19.3465C43.6491 19.0029 44.0384 18.5717 44.3333 18.0776L50.4583 7.86925C51.2167 6.52759 51.275 4.89425 50.4583 3.49425C50.0769 2.82412 49.5256 2.26637 48.8599 1.87721C48.1942 1.48805 47.4377 1.28123 46.6667 1.27759ZM125.417 50.5751C125.417 68.5417 112.35 83.3584 95.2583 86.1001V85.9834C93.5667 64.2251 75.95 46.4918 53.9 44.7418C55.2701 36.3126 59.5984 28.6472 66.1087 23.1205C72.6189 17.5937 80.8852 14.5671 89.425 14.5834C109.317 14.5834 125.417 30.6834 125.417 50.5751ZM57.225 82.8334C57.225 81.9584 56.2333 80.6168 55.0083 80.6168H42.9917V84.9918H55.0083C56.2333 85.0501 57.225 84.0584 57.225 82.8334ZM57.3417 93.7884H42.9917V98.1634H57.4C59.2667 98.1634 60.55 96.9967 60.55 95.9467C60.55 94.8968 59.2083 93.7884 57.3417 93.7884Z" fill="#5200FF"/>
<path d="M86.5083 86.6133C85.8463 78.0459 82.1429 69.9976 76.0668 63.9215C69.9907 57.8454 61.9424 54.142 53.375 53.48C52.4417 53.4216 51.5667 53.3633 50.575 53.3633C30.6833 53.3633 14.5833 69.4633 14.5833 89.4133C14.5833 109.305 30.6833 125.405 50.575 125.405C70.4667 125.405 86.625 109.305 86.625 89.4133C86.625 88.4216 86.5667 87.5466 86.5083 86.6133ZM57.3417 106.913H53.4917V109.13C53.4917 111.522 51.5083 113.505 49.1167 113.505C46.725 113.505 44.7417 111.522 44.7417 109.13V106.913H38.6167C36.225 106.913 34.2417 104.93 34.2417 102.538V76.2883C34.2417 73.8966 36.225 71.9133 38.6167 71.9133H44.7417V69.6966C44.7417 67.3049 46.725 65.3216 49.1167 65.3216C51.5083 65.3216 53.4917 67.3049 53.4917 69.6966V71.9133H55.0083C60.8417 71.9133 65.975 77.0466 65.975 82.88C65.975 84.5716 65.5667 86.1466 64.8667 87.6049C67.55 89.5883 69.2417 92.6216 69.2417 96.005C69.2417 102.013 63.9333 106.913 57.3417 106.913Z" fill="#5200FF"/>
</svg>
