<svg width="140" height="140" viewBox="0 0 140 140" fill="none" xmlns="http://www.w3.org/2000/svg">
<path d="M127.867 97.7023C125.942 113.219 113.225 125.936 97.7083 127.861C88.3167 129.027 79.5667 126.461 72.7417 121.444C68.8333 118.586 69.7667 112.519 74.4333 111.119C83.0999 108.471 90.9834 103.735 97.3913 97.327C103.799 90.9191 108.535 83.0355 111.183 74.369C112.583 69.7606 118.65 68.8273 121.508 72.6773C126.729 79.9088 129.002 88.8559 127.867 97.7023Z" fill="#5200FF"/>
<path d="M58.275 11.6665C32.55 11.6665 11.6667 32.5498 11.6667 58.2748C11.6667 83.9998 32.55 104.883 58.275 104.883C84 104.883 104.883 83.9998 104.883 58.2748C104.825 32.5498 84 11.6665 58.275 11.6665ZM52.7917 51.7415L66.85 56.6415C71.925 58.4498 74.375 62.0082 74.375 67.4915C74.375 73.7915 69.3583 78.9832 63.2333 78.9832H62.7083V79.2748C62.7083 81.6665 60.725 83.6498 58.3333 83.6498C55.9417 83.6498 53.9583 81.6665 53.9583 79.2748V78.9248C47.4833 78.6332 42.2917 73.2082 42.2917 66.4415C42.2917 64.0498 44.275 62.0665 46.6667 62.0665C49.0583 62.0665 51.0417 64.0498 51.0417 66.4415C51.0417 68.5415 52.5583 70.2332 54.425 70.2332H63.175C64.5167 70.2332 65.5667 69.0082 65.5667 67.4915C65.5667 65.4498 65.2167 65.3332 63.875 64.8665L49.8167 59.9665C44.8 58.2165 42.2917 54.6582 42.2917 49.1165C42.2917 42.8165 47.3083 37.6248 53.4333 37.6248H53.9583V37.3915C53.9583 34.9998 55.9417 33.0165 58.3333 33.0165C60.725 33.0165 62.7083 34.9998 62.7083 37.3915V37.7415C69.1833 38.0332 74.375 43.4582 74.375 50.2248C74.375 52.6165 72.3917 54.5998 70 54.5998C67.6083 54.5998 65.625 52.6165 65.625 50.2248C65.625 48.1248 64.1083 46.4332 62.2417 46.4332H53.4917C52.15 46.4332 51.1 47.6582 51.1 49.1748C51.0417 51.1582 51.3917 51.2748 52.7917 51.7415Z" fill="#5200FF"/>
</svg>
