<svg width="140" height="161" viewBox="0 0 140 161" fill="none" xmlns="http://www.w3.org/2000/svg">
<path d="M48.1775 142.106C51.8233 137.917 54.1171 132.43 54.6817 126.547C55.0684 122.669 54.6841 118.74 53.5577 115.056C52.4312 111.372 50.5918 108.029 48.1775 105.277C45.2641 101.921 41.5943 99.5613 37.5783 98.4605C33.7827 97.3557 29.8016 97.4039 26.0271 98.6002C22.2527 99.7966 18.8152 102.1 16.0533 105.283C12.1391 109.728 9.80803 115.684 9.51415 121.992C9.30999 124.614 9.51415 127.33 10.115 129.952C11.0367 134.42 13.0433 138.654 16.0533 142.106C18.1622 144.525 20.6662 146.444 23.4222 147.754C26.1782 149.063 29.1322 149.737 32.1154 149.737C35.0986 149.737 38.0526 149.063 40.8086 147.754C43.5646 146.444 46.0686 144.525 48.1775 142.106ZM40.6292 118.902C42.9567 118.902 44.8875 121.109 44.8875 123.785C44.8724 125.086 44.4144 126.329 43.6112 127.249C42.8081 128.169 41.7233 128.692 40.5883 128.708L36.3708 128.661L36.4117 133.316C36.3966 134.617 35.9394 135.859 35.1375 136.778C34.3356 137.698 33.2523 138.222 32.1183 138.239C30.9833 138.224 29.8986 137.7 29.0954 136.781C28.2923 135.861 27.8343 134.618 27.8192 133.316L27.86 128.661L23.6425 128.708C22.5085 128.69 21.4252 128.166 20.6233 127.247C19.8214 126.327 19.3643 125.085 19.3492 123.785C19.3842 122.502 19.8441 121.284 20.6352 120.377C21.4264 119.469 22.4892 118.942 23.6075 118.902H27.86V113.838C27.86 112.46 28.3442 111.263 29.1025 110.387C29.8667 109.517 30.9108 108.962 32.1183 108.962C34.4458 108.962 36.3767 111.169 36.3767 113.845V118.902H40.6292ZM88.0542 25.7189V50.4678H79.5375V25.7189C79.5375 23.9664 78.1783 23.1169 77.2625 23.1169C76.972 23.1214 76.6849 23.1895 76.4167 23.3176L31.3833 42.7755C29.9203 43.4072 28.6619 44.539 27.7782 46.0176C26.8945 47.4963 26.4283 49.2505 26.4425 51.043V55.4042C23.7934 57.6732 21.6437 60.621 20.165 64.0123C18.6862 67.4035 17.9195 71.1442 17.9258 74.9357V51.0497C17.9258 43.304 22.0675 36.401 28.3733 33.6653L73.4592 14.1337C75.0931 13.4348 76.8502 13.1993 78.5807 13.4473C80.3111 13.6954 81.9636 14.4196 83.3972 15.5582C84.8308 16.6968 86.0031 18.2161 86.8139 19.9865C87.6248 21.7569 88.0503 23.7192 88.0542 25.7189ZM125.825 94.4204V100.929C125.827 101.783 125.535 102.603 125.013 103.213C124.491 103.823 123.781 104.172 123.037 104.186H114.747C111.737 104.186 109.013 101.644 108.786 98.2599C108.708 97.306 108.816 96.3443 109.1 95.4435C109.384 94.5427 109.839 93.7252 110.431 93.0492C110.946 92.4386 111.564 91.956 112.249 91.6314C112.933 91.3069 113.669 91.1475 114.409 91.163H122.984C124.629 91.2298 125.825 92.6613 125.825 94.4204Z" fill="#5200FF"/>
<path d="M114.345 84.3068H120.138C121.641 84.3015 123.082 83.6141 124.146 82.3947C125.209 81.1753 125.809 79.523 125.813 77.7985V74.9357C125.801 68.4472 123.548 62.2285 119.546 57.6404C115.545 53.0523 110.122 50.4685 104.463 50.4543H39.2817C34.4575 50.4543 30.0242 52.2804 26.4483 55.4041C23.7993 57.6732 21.6496 60.621 20.1708 64.0122C18.6921 67.4035 17.9253 71.1442 17.9317 74.9357V86.5208C17.9317 88.9957 20.2067 90.5609 22.2483 89.7783C25.4304 88.5357 28.7684 87.8985 32.13 87.8921C40.4069 87.9097 48.3403 91.6878 54.193 98.3988C60.0456 105.11 63.3404 114.207 63.3559 123.698C63.3559 128.387 62.2767 133.53 60.5733 138.085C59.6633 140.427 61.0867 143.236 63.2975 143.236H104.463C110.122 143.222 115.545 140.638 119.546 136.05C123.548 131.462 125.801 125.243 125.813 118.755V117.517C125.81 115.792 125.211 114.137 124.148 112.917C123.084 111.696 121.642 111.007 120.138 111.002H115.197C109.748 111.002 104.522 107.163 103.104 101.103C102.56 98.8366 102.557 96.4446 103.096 94.177C103.635 91.9094 104.696 89.8496 106.167 88.2131C107.231 86.9647 108.503 85.9753 109.909 85.3041C111.314 84.6329 112.823 84.2937 114.345 84.3068ZM83.23 83.0092H54.8333C52.5058 83.0092 50.575 80.7951 50.575 78.1263C50.575 75.4507 52.5058 73.2434 54.8333 73.2434H83.2242C85.5517 73.2434 87.4825 75.4507 87.4825 78.1263C87.4825 80.7951 85.5575 83.0092 83.23 83.0092Z" fill="#5200FF"/>
</svg>
